<svg width="97" height="97" viewBox="0 0 97 97" fill="none" xmlns="http://www.w3.org/2000/svg">
<g clip-path="url(#clip0)">
<path d="M78.5965 41.9035C77.3728 41.9035 76.1516 42.0252 74.9524 42.2679C74.048 37.7545 71.1244 33.9044 67.0194 31.8205C62.9153 29.7366 58.0817 29.6492 53.9041 31.5828C50.1235 21.169 38.6166 15.7921 28.2028 19.5727C17.7889 23.3534 12.4121 34.861 16.1927 45.274C7.07038 45.5624 -0.135493 53.113 0.000928888 62.2386C0.138168 71.365 7.56788 78.6951 16.6951 78.7098H78.5965C88.7596 78.7098 96.9997 70.4705 96.9997 60.3066C96.9997 50.1428 88.7596 41.9035 78.5965 41.9035Z" fill="#A3D4F7"/>
</g>
<defs>
<clipPath id="clip0">
<rect width="97" height="97" fill="white"/>
</clipPath>
</defs>
</svg>
