<svg width="351" height="350" viewBox="0 0 351 350" fill="none" xmlns="http://www.w3.org/2000/svg">
<path d="M110.104 76.872C110.104 55.7637 127.215 38.652 148.324 38.652H170.164H197.464C197.464 26.5909 183.366 16.812 159.244 16.812H115.564C105.25 16.812 95.5419 21.666 89.3557 29.916C85.1024 35.589 82.8037 42.4849 82.8037 49.572V109.632L110.104 93.252V76.872Z" fill="#4D2817"/>
<path d="M77.343 159.809V109.632H66.423C54.3619 109.632 44.583 119.411 44.583 131.472V153.312C44.583 165.373 54.3619 175.152 66.423 175.152H81.2141C78.7299 170.473 77.343 165.231 77.343 159.809Z" fill="#606060"/>
<path d="M224.763 153.312V131.472C224.763 119.411 214.984 109.632 202.923 109.632H197.463V153.312H224.763Z" fill="#606060"/>
<path d="M170.164 55.032V38.652H148.324C127.215 38.652 110.104 55.7636 110.104 76.872V93.252H131.944C153.052 93.252 170.164 76.1404 170.164 55.032Z" fill="#4D2817"/>
<path d="M170.163 55.032C170.163 76.1404 153.052 93.252 131.943 93.252H164.703C185.812 93.252 202.923 76.1404 202.923 55.032V38.652H197.463H170.163V55.032Z" fill="#66351E"/>
<path d="M164.703 93.252H197.463C203.333 93.252 208.875 91.887 213.843 89.5228V89.4628V89.5228C226.745 83.3858 235.683 70.2654 235.683 55.032V38.652H202.923V55.032C202.923 76.1404 185.811 93.252 164.703 93.252Z" fill="#4D2817"/>
<path d="M104.644 16.812H93.7239C83.4099 16.812 73.702 21.666 67.5159 29.916C63.2625 35.589 60.9639 42.4849 60.9639 49.572V109.632H66.4239H82.8039V49.572C82.8039 42.4849 85.1025 35.589 89.3559 29.916C95.5421 21.666 105.25 16.812 115.564 16.812H104.644Z" fill="#66351E"/>
<path d="M60.963 158.772V136.932C60.963 126.765 67.9409 118.297 77.343 115.862V109.632H66.423C54.3619 109.632 44.583 119.411 44.583 131.472V153.312C44.583 165.373 54.3619 175.152 66.423 175.152H68.4978C63.9169 171.15 60.963 165.335 60.963 158.772Z" fill="#878787"/>
<path d="M202.923 109.632H197.463V120.552C209.524 120.552 219.303 130.331 219.303 142.392V153.312H224.763V131.472C224.763 119.411 214.984 109.632 202.923 109.632Z" fill="#878787"/>
<path d="M224.763 237.145C239.958 243.298 252.063 250.314 252.063 257.052V333.492H22.7432V257.052C22.7432 238.958 110.103 218.832 110.103 218.832H164.703L224.763 237.145Z" fill="#D0382A"/>
<path d="M224.763 253.525L164.703 235.212H110.103C110.103 235.212 33.008 252.979 23.6768 270.129L22.7432 257.052C22.7432 238.958 110.103 218.832 110.103 218.832H164.703L224.763 237.145C239.958 243.298 252.063 250.314 252.063 257.052L251.119 270.26C248.116 264.527 237.589 258.717 224.763 253.525Z" fill="#B33024"/>
<path d="M104.644 93.252H197.464V159.809C197.464 169.534 193.145 178.75 185.676 184.975L159.997 199.045C155.919 201.284 151.349 202.452 146.697 202.452H128.105C123.459 202.452 118.883 201.284 114.805 199.045L89.1264 184.975C81.6626 178.75 77.3438 169.528 77.3438 159.809V115.092L104.644 93.252Z" fill="#FCE0B9"/>
<path d="M114.81 199.045C118.889 201.284 123.459 202.452 128.111 202.452H146.702C151.348 202.452 155.924 201.284 160.002 199.045L164.704 196.468V229.752C149.628 244.827 125.179 244.827 110.104 229.752V196.468L114.81 199.045Z" fill="#FCE0B9"/>
<path d="M110.104 196.468L114.81 199.045C118.889 201.284 123.459 202.452 128.111 202.452H146.702C151.348 202.452 155.924 201.284 160.002 199.045L164.704 196.468V229.752C163.841 230.615 162.94 231.412 162.023 232.176L110.104 198.554V196.468Z" fill="#F5CBA1"/>
<path d="M148.323 136.932C145.309 136.932 142.863 139.378 142.863 142.392V202.452H146.696C151.343 202.452 155.918 201.284 159.997 199.045L185.675 184.975C193.144 178.75 197.463 169.528 197.463 159.809V136.932H148.323Z" fill="#F5CBA1"/>
<path d="M159.243 153.312V199.4V224.292V273.432H235.683V180.612C235.683 174.579 240.57 169.692 246.603 169.692C252.636 169.692 257.523 174.579 257.523 180.612V273.432H333.963V153.312H159.243Z" fill="#383838"/>
<path d="M246.604 169.692C240.57 169.692 235.684 174.579 235.684 180.612V273.432V311.652H257.524V273.432V180.612C257.524 174.579 252.637 169.692 246.604 169.692Z" fill="#383838"/>
<path d="M197.463 311.652V333.492H295.743V311.652H257.523H235.683H197.463Z" fill="#383838"/>
<path d="M131.944 82.332H110.104V93.252H131.944C153.052 93.252 170.164 76.1404 170.164 55.032V44.112C170.164 65.2204 153.052 82.332 131.944 82.332Z" fill="#3D2012"/>
<path d="M164.703 82.332H158.665C151.774 89.0806 142.35 93.252 131.943 93.252H164.703C185.812 93.252 202.923 76.1404 202.923 55.032V44.112C202.923 65.2204 185.812 82.332 164.703 82.332Z" fill="#4D2817"/>
<path d="M213.843 78.6028C208.875 80.967 203.333 82.332 197.463 82.332H191.424C184.534 89.0806 175.11 93.252 164.703 93.252H197.463C203.333 93.252 208.875 91.887 213.843 89.5228C226.745 83.3858 235.683 70.2654 235.683 55.032V44.112C235.683 59.3509 226.745 72.4658 213.843 78.6028Z" fill="#3D2012"/>
<path d="M55.5029 311.652L110.103 300.732H142.863C151.91 300.732 159.243 308.065 159.243 317.112V333.492H55.5029V311.652Z" fill="#FCE0B9"/>
<path d="M224.764 166.755V273.432H235.684V180.612C235.684 174.579 240.57 169.692 246.604 169.692C252.637 169.692 257.524 174.579 257.524 180.612V273.432H268.444V166.755C268.444 159.329 258.665 153.312 246.604 153.312C234.543 153.312 224.764 159.329 224.764 166.755Z" fill="#262626"/>
<path d="M197.463 322.572H295.743V333.492H197.463V322.572Z" fill="#262626"/>
<path d="M110.104 141.027C104.835 141.027 100.549 136.741 100.549 131.472C100.549 126.203 104.835 121.917 110.104 121.917C115.373 121.917 119.659 126.203 119.659 131.472C119.659 136.741 115.373 141.027 110.104 141.027ZM110.104 130.107C109.35 130.107 108.739 130.719 108.739 131.472C108.739 132.974 111.469 132.974 111.469 131.472C111.469 130.719 110.857 130.107 110.104 130.107Z" fill="black"/>
<path d="M164.703 141.027C159.435 141.027 155.148 136.741 155.148 131.472C155.148 126.203 159.435 121.917 164.703 121.917C169.972 121.917 174.258 126.203 174.258 131.472C174.258 136.741 169.972 141.027 164.703 141.027ZM164.703 130.107C163.95 130.107 163.338 130.719 163.338 131.472C163.338 132.974 166.068 132.974 166.068 131.472C166.068 130.719 165.457 130.107 164.703 130.107Z" fill="black"/>
<path d="M333.963 147.852H230.223V131.472C230.223 122.589 225.893 114.759 219.303 109.774V92.8043C232.336 85.2367 241.143 71.1608 241.143 55.032V38.652C241.143 35.6381 238.697 33.192 235.683 33.192H202.159C198.959 21.6223 185.353 11.352 159.243 11.352H115.563H93.7232C81.7549 11.352 70.3271 17.0686 63.1472 26.64C58.2168 33.2084 55.5032 41.3547 55.5032 49.572V106.449C45.8663 110.669 39.1232 120.301 39.1232 131.472V153.312C39.1232 166.492 48.5199 177.522 60.9632 180.061V227.044C38.0203 235.086 17.2832 245.531 17.2832 257.052V333.492C17.2832 336.506 19.7293 338.952 22.7432 338.952H197.463H295.743C298.757 338.952 301.203 336.506 301.203 333.492V311.652C301.203 308.638 298.757 306.192 295.743 306.192H262.983V278.892H333.963C336.977 278.892 339.423 276.446 339.423 273.432V153.312C339.423 150.298 336.977 147.852 333.963 147.852ZM202.923 147.852V115.092C211.954 115.092 219.303 122.441 219.303 131.472V147.852H202.923ZM115.563 205.417C119.538 207.044 123.802 207.912 128.11 207.912H146.696C149.066 207.912 151.446 207.612 153.783 207.093V231.15C141.558 238.155 126.199 236.719 115.563 227.393V205.417ZM159.243 147.852C156.229 147.852 153.783 150.298 153.783 153.312V195.769C151.479 196.555 149.077 196.992 146.696 196.992H128.11C124.387 196.992 120.696 196.047 117.431 194.262L92.2381 180.454C86.2321 175.261 82.8032 167.765 82.8032 159.809V115.092C83.8351 115.092 84.7415 114.732 85.566 114.235L85.6151 114.317L111.616 98.712H192.003V147.852H159.243ZM197.463 44.112V55.032C197.463 73.0991 182.77 87.792 164.703 87.792H160.739C169.841 79.7822 175.623 68.0814 175.623 55.032V44.112H197.463ZM164.703 55.032C164.703 73.0991 150.01 87.792 131.943 87.792H115.563V76.872C115.563 58.8049 130.256 44.112 148.323 44.112H164.703V55.032ZM208.383 104.723C206.62 104.363 204.791 104.172 202.923 104.172V98.3353C204.785 98.1005 206.603 97.7401 208.383 97.276V104.723ZM230.223 55.032C230.223 73.0991 215.53 87.792 197.463 87.792H193.499C202.601 79.7822 208.383 68.0814 208.383 55.032V44.112H230.223V55.032ZM93.7232 33.192C98.8501 26.3561 107.013 22.272 115.563 22.272H159.243C175.858 22.272 186.276 27.2024 190.19 33.192H148.323C124.239 33.192 104.643 52.7879 104.643 76.872V90.1616L88.2632 99.9896V49.572C88.2632 43.7025 90.2015 37.8821 93.7232 33.192ZM66.4232 49.572C66.4232 43.7025 68.3615 37.8821 71.8832 33.192C75.9018 27.8303 81.7876 24.1666 88.2632 22.8289C87.0948 24.0192 85.9973 25.2914 84.9872 26.64C80.0568 33.2084 77.3432 41.3547 77.3432 49.572V104.172H66.4232V49.572ZM50.0432 153.312V131.472C50.0432 122.441 57.3924 115.092 66.4232 115.092H71.8832V159.809C71.8832 163.195 72.3801 166.498 73.2318 169.692H66.4232C57.3924 169.692 50.0432 162.343 50.0432 153.312ZM71.8832 180.612H78.0858C80.1496 183.779 82.6558 186.684 85.6369 189.168C85.9045 189.397 86.1993 189.594 86.5105 189.763L104.643 199.7V214.502C95.596 216.659 83.8461 219.695 71.8832 223.429V180.612ZM28.2032 257.052C28.2032 252.902 41.4382 245.925 60.9632 238.837V304.991L54.433 306.301L56.5788 317.008L60.9632 316.129V328.032H28.2032V257.052ZM153.783 328.032H71.8832V313.945L110.644 306.192H142.863C148.886 306.192 153.783 311.09 153.783 317.112V328.032ZM192.003 311.652V328.032H164.703V317.112C164.703 305.067 154.908 295.272 142.863 295.272H110.103C109.743 295.272 109.388 295.305 109.033 295.381L71.8832 302.807V235.076C81.9296 231.794 93.0735 228.6 104.643 225.755V229.752C104.643 231.199 105.216 232.591 106.243 233.612C114.777 242.146 126.068 246.536 137.436 246.531C142.983 246.531 148.514 245.368 153.783 243.249V273.432C153.783 276.446 156.229 278.892 159.243 278.892H230.223V306.192H197.463C194.449 306.192 192.003 308.638 192.003 311.652ZM290.283 328.032H202.923V317.112H290.283V328.032ZM241.143 306.192V180.612C241.143 177.604 243.595 175.152 246.603 175.152C249.612 175.152 252.063 177.604 252.063 180.612V306.192H241.143ZM328.503 267.972H262.983V180.612C262.983 171.581 255.634 164.232 246.603 164.232C237.572 164.232 230.223 171.581 230.223 180.612V267.972H164.703V158.772H328.503V267.972Z" fill="black"/>
</svg>
