<svg width="334" height="361" viewBox="0 0 334 361" fill="none" xmlns="http://www.w3.org/2000/svg">
<path d="M54.5631 291.697C53.4765 291.697 52.3708 291.509 51.2862 291.116C46.138 289.242 43.4317 283.401 45.2411 278.07C48.3698 268.853 55.2342 261.755 64.5684 258.083C78.1029 252.756 95.3427 254.84 110.686 263.655C117.33 267.473 122.467 267.463 128.414 263.625C134.982 259.387 141.534 251.043 147.868 242.975L149.806 240.51C153.261 236.133 159.486 235.486 163.711 239.059C167.938 242.634 168.564 249.08 165.112 253.456L163.203 255.884C155.845 265.256 148.235 274.947 138.867 280.992C126.759 288.804 114.053 288.992 101.098 281.549C91.09 275.8 79.5078 274.095 71.588 277.212C67.676 278.751 65.0845 281.323 63.885 284.857C62.4571 289.064 58.6403 291.697 54.5631 291.697Z" fill="#EDA751"/>
<path opacity="0.2" d="M163.707 239.059C159.483 235.486 153.257 236.134 149.802 240.51L147.864 242.975C141.529 251.044 134.977 259.388 128.41 263.626C122.463 267.463 117.326 267.473 110.682 263.655C103.121 259.311 95.0988 256.605 87.2864 255.612L122.783 286.852C128.237 286.335 133.606 284.383 138.862 280.991C148.231 274.946 155.839 265.255 163.198 255.883L165.108 253.455C168.56 249.08 167.934 242.634 163.707 239.059Z" fill="#A35F00"/>
<path d="M49.3503 269.927C47.6279 272.397 46.2414 275.124 45.2411 278.071C43.4317 283.402 46.138 289.243 51.2869 291.117C52.3715 291.511 53.4771 291.698 54.5638 291.698C58.6403 291.698 62.4571 289.065 63.8864 284.857C64.4515 283.193 65.3368 281.75 66.5118 280.519C62.421 274.008 54.8698 270.974 49.3503 269.927Z" fill="#FCD79D"/>
<path d="M153.975 344.382C152.225 344.382 150.449 344.08 148.706 343.442C140.473 340.428 136.159 331.075 139.069 322.551C144.439 306.825 149.355 289.562 145.105 280.761C141.2 272.673 144.365 262.841 152.175 258.798C159.987 254.755 169.481 258.032 173.386 266.119C182.375 284.734 178.086 306.504 168.881 333.464C166.587 340.183 160.487 344.382 153.975 344.382Z" fill="#EDA751"/>
<path opacity="0.2" d="M152.177 258.798C144.367 262.841 141.202 272.675 145.106 280.761C147.852 286.445 146.771 295.66 144.216 305.709L170.443 328.79C178.542 303.97 181.852 283.645 173.388 266.118C169.483 258.032 159.989 254.755 152.177 258.798Z" fill="#A35F00"/>
<path d="M240.527 344.111C238.779 344.111 237 343.808 235.257 343.17C227.024 340.157 222.71 330.804 225.62 322.28C228.535 313.741 227.218 305.306 225.599 299.733C223.525 292.595 220.281 287.762 219.041 286.549C212.135 281.202 210.633 271.082 215.714 263.83C220.84 256.511 230.728 254.881 237.795 260.189C249.953 269.32 266.244 301.524 255.432 333.193C253.138 339.912 247.039 344.111 240.527 344.111ZM219.224 286.687C219.226 286.689 219.229 286.691 219.231 286.692C219.229 286.691 219.226 286.689 219.224 286.687Z" fill="#EDA751"/>
<path d="M192.707 297.543C232.979 297.543 265.627 266.131 265.627 227.382C265.627 188.633 232.979 157.22 192.707 157.22C152.434 157.22 119.786 188.633 119.786 227.382C119.786 266.131 152.434 297.543 192.707 297.543Z" fill="#FCD690"/>
<path opacity="0.15" d="M182.058 296.798C148.735 274.145 159.063 227.716 164.72 207.412V162.579C138.337 173.14 119.786 198.175 119.786 227.383C119.786 262.651 146.833 291.838 182.058 296.798Z" fill="#C17A00"/>
<path d="M148.333 105.724C162.603 93.3261 172.128 72.5145 152.002 41.7491C131.717 10.7409 101.515 2.96767 77.9372 5.84389C72.124 6.55291 67.2464 10.7909 65.5628 16.5954C58.733 40.1396 60.8811 72.2864 86.8498 98.3568C112.616 124.222 134.064 118.121 148.333 105.724Z" fill="#EDA751"/>
<path d="M64.6143 20.1974C59.0146 43.3459 62.1813 73.5902 86.8506 98.356C109.183 120.775 128.269 119.173 142.251 110.278C132.636 42.684 90.6286 24.7592 64.6143 20.1974Z" fill="#FF91AB"/>
<path d="M237.085 105.724C222.816 93.3261 213.29 72.5145 233.416 41.7491C253.701 10.7409 283.902 2.96767 307.482 5.84389C313.295 6.55291 318.172 10.7909 319.856 16.5954C326.686 40.1396 324.538 72.2864 298.569 98.3568C272.802 124.222 251.354 118.121 237.085 105.724Z" fill="#EDA751"/>
<path d="M320.807 20.1974C326.406 43.3459 323.24 73.5902 298.57 98.356C276.238 120.775 257.152 119.173 243.171 110.278C252.786 42.684 294.793 24.7592 320.807 20.1974Z" fill="#FF91AB"/>
<path d="M316.854 124.435C316.854 183.21 261.272 208.953 192.708 208.953C124.144 208.953 68.5623 183.21 68.5623 124.435C68.5623 65.6603 124.144 18.0129 192.708 18.0129C261.272 18.0129 316.854 65.6603 316.854 124.435Z" fill="#FFDC9C"/>
<path opacity="0.15" d="M126.42 34.4443C91.6519 53.3035 68.5623 86.5557 68.5623 124.435C68.5623 174.96 109.636 201.075 164.721 207.411C85.6476 158.504 95.9603 92.7193 126.42 34.4443Z" fill="#C17A00"/>
<path d="M146.141 156.394C158.556 156.394 168.621 148.095 168.621 137.859C168.621 127.623 158.556 119.324 146.141 119.324C133.726 119.324 123.661 127.623 123.661 137.859C123.661 148.095 133.726 156.394 146.141 156.394Z" fill="#FF91AB"/>
<path d="M267.976 156.393C280.392 156.393 290.456 148.095 290.456 137.859C290.456 127.623 280.392 119.324 267.976 119.324C255.561 119.324 245.497 127.623 245.497 137.859C245.497 148.095 255.561 156.393 267.976 156.393Z" fill="#FF91AB"/>
<path d="M54.8143 212.992L110.97 143.701L84.8909 121.041L28.7354 190.331L54.8143 212.992Z" fill="#495059"/>
<path d="M84.8919 121.031L28.7371 190.327L12.0455 175.824C3.81082 168.669 2.73644 155.957 9.64648 147.43L40.779 109.012C47.6891 100.486 59.9656 99.3732 68.2002 106.528L84.8919 121.031Z" fill="#FF91AB"/>
<path d="M54.8157 212.988L195.137 336.482C201.648 342.138 209.564 345.783 217.98 346.998L274.337 355.135C280.006 355.954 284.549 350.348 282.786 344.71L265.261 288.655C262.644 280.283 257.803 272.843 251.293 267.188L110.97 143.693L54.8157 212.988Z" fill="#F5D141"/>
<path opacity="0.1" d="M79.6107 182.384L230.63 313.607L237.186 305.517L86.1667 174.295L79.6107 182.384Z" fill="black"/>
<path d="M206.331 343.621C210.034 345.272 213.949 346.417 217.981 347L274.338 355.137C280.007 355.956 284.55 350.35 282.787 344.711L265.261 288.657C264.007 284.647 262.238 280.854 260.025 277.364L206.331 343.621Z" fill="#FFDC9C"/>
<path d="M248.335 351.382L274.332 355.136C280.001 355.955 284.544 350.349 282.781 344.71L274.696 318.853L248.335 351.382Z" fill="#495059"/>
<path opacity="0.1" d="M274.336 355.136C276.91 355.507 279.244 354.547 280.869 352.868C132.186 285.342 39.4347 165.516 23.6597 130.131L9.64038 147.431C2.73034 155.957 3.80472 168.669 12.0394 175.824L28.731 190.327L54.814 212.988L195.136 336.483C201.646 342.139 209.562 345.783 217.978 346.998L274.336 355.136Z" fill="black"/>
<path d="M82.3133 247.691C79.8089 247.691 77.2685 247.073 74.9028 245.771C67.1938 241.524 64.2678 231.612 68.3681 223.63C69.316 221.785 74.3935 212.141 81.2546 203.52C86.8074 196.543 96.7719 195.548 103.509 201.297C110.248 207.047 111.209 217.364 105.656 224.341C101.561 229.486 97.8388 235.98 96.285 239.005C93.4434 244.538 87.9708 247.691 82.3133 247.691Z" fill="#EDA751"/>
<path d="M214.525 252.497C214.492 252.497 214.46 252.497 214.427 252.497C205.696 252.472 198.637 245.123 198.66 236.082C198.684 227.056 205.759 219.756 214.469 219.756C214.493 219.757 214.516 219.757 214.54 219.756C220.857 219.756 238.31 213.459 246.364 206.252C252.971 200.341 262.954 201.094 268.664 207.935C274.372 214.776 273.645 225.113 267.039 231.025C254.236 242.483 229.728 252.497 214.525 252.497Z" fill="#EDA751"/>
<path d="M207.058 130.961C213.365 130.961 219.361 128.133 223.51 123.203C225.361 121.004 225.139 117.669 223.016 115.752C220.891 113.836 217.67 114.065 215.82 116.264C213.608 118.892 210.414 120.4 207.057 120.4C203.7 120.4 200.506 118.892 198.293 116.264C196.443 114.065 193.221 113.836 191.098 115.753C188.975 117.669 188.754 121.005 190.605 123.203C194.756 128.134 200.753 130.961 207.058 130.961ZM328.132 342.637H287.497L270.112 287.03C267.806 279.655 263.957 272.953 258.877 267.365C265.195 257.599 269.114 246.558 270.319 235.069C270.336 235.054 270.354 235.038 270.371 235.023C279.094 227.217 280.058 213.518 272.52 204.485C271.31 203.035 269.952 201.795 268.49 200.762C276.188 197.466 283.146 193.594 289.257 189.172C310.647 173.695 321.953 151.31 321.953 124.437C321.953 111.414 319.396 98.7413 314.496 86.8407C328.138 65.6842 331.885 39.7116 324.739 15.076C322.465 7.23878 315.925 1.55675 308.078 0.599182C284.37 -2.29182 261.036 5.36941 243.525 21.6649C227.671 15.8118 210.461 12.7314 192.709 12.7314C175.121 12.7314 157.858 15.8336 141.934 21.7044C124.417 5.38209 101.058 -2.29605 77.3384 0.599886C69.49 1.55675 62.9499 7.23948 60.6767 15.0775C53.5239 39.7327 57.2842 65.7285 70.9547 86.8936C69.2867 90.9343 67.8845 95.0639 66.7639 99.2666C62.7187 97.1409 58.1736 96.2136 53.5443 96.6312C47.0082 97.2233 41.0862 100.416 36.8696 105.62L5.73634 144.039C-2.97022 154.783 -1.61161 170.857 8.76365 179.872L51.5131 217.015L61.9931 226.238C61.1173 229.966 61.2166 233.883 62.3277 237.648C63.9603 243.179 67.5751 247.721 72.5071 250.437C72.5554 250.464 72.6057 250.486 72.6546 250.512C69.2207 251.04 65.9017 251.914 62.7581 253.151C51.9946 257.387 44.0659 265.616 40.4307 276.323C37.6924 284.392 41.8043 293.265 49.599 296.103C51.2037 296.686 52.8745 296.982 54.5642 296.982C60.9112 296.982 66.5919 292.814 68.6978 286.612C69.1371 285.318 70.1026 283.448 73.4013 282.151C79.872 279.605 90.0086 281.219 98.6254 286.17C110.554 293.022 122.392 294.131 133.866 289.491L141.061 295.823C139.848 303.807 136.843 313.236 134.263 320.794C132.402 326.247 132.702 332.124 135.109 337.342C137.517 342.56 141.742 346.496 147.01 348.425C149.263 349.249 151.608 349.667 153.977 349.667C162.82 349.667 170.742 343.864 173.691 335.227C174.689 332.307 175.591 329.554 176.409 326.932L191.862 340.532C199.113 346.832 207.903 350.879 217.279 352.232L273.636 360.37C274.24 360.457 274.842 360.5 275.439 360.5C279.21 360.5 282.786 358.793 285.258 355.742C285.9 354.951 286.436 354.096 286.876 353.202H328.135C330.952 353.202 333.235 350.838 333.235 347.921C333.235 345.004 330.949 342.637 328.132 342.637ZM263.701 227.031C251.895 237.596 228.453 247.217 214.521 247.217H214.438C208.531 247.2 203.74 242.212 203.756 236.097C203.773 230.012 208.555 225.06 214.425 225.037C214.48 225.039 214.535 225.037 214.592 225.037C221.987 225.004 240.595 218.391 249.696 210.248C254.164 206.249 260.941 206.761 264.803 211.387C268.664 216.015 268.17 223.032 263.701 227.031ZM258.361 243.651C256.795 249.446 254.394 255.013 251.215 260.191L241.628 251.752C247.424 249.505 253.159 246.739 258.361 243.651ZM309.118 75.7471C302.821 64.5161 294.302 54.168 283.744 45.1169C283.073 44.5416 282.394 43.9762 281.71 43.4151C293.575 33.5965 306.538 28.7523 316.856 26.3774C318.893 38.1992 319.375 56.7471 309.118 75.7471ZM306.885 11.0881C310.011 11.4697 312.706 13.3968 314.183 16.1772C302.133 19.0098 286.915 24.8819 273.189 37.0022C267.21 32.8776 260.867 29.2466 254.227 26.1352C274.861 9.42147 297.515 9.94461 306.885 11.0881ZM192.708 23.2935C258.35 23.2935 311.753 68.6653 311.753 124.434C311.753 148.038 302.219 166.907 283.414 180.512C266.009 193.106 240.793 200.901 210.492 203.056C207.682 203.256 205.56 205.775 205.753 208.685C205.938 211.472 208.178 213.604 210.836 213.604C210.954 213.604 211.072 213.6 211.191 213.592C215.462 213.288 219.639 212.872 223.721 212.353C219.777 213.685 216.361 214.475 214.536 214.475C214.511 214.475 214.488 214.475 214.465 214.475C210.314 214.475 206.442 215.743 203.183 217.918L137.555 160.159C141.153 158.434 144.452 157.078 146.573 156.495C149.295 155.747 150.916 152.855 150.194 150.037C149.471 147.218 146.679 145.542 143.956 146.287C139.77 147.438 133.861 150.176 129.065 152.688L115.599 140.836C115.626 140.829 115.655 140.826 115.683 140.819C120.766 139.502 134.216 138.482 140.032 139.28C142.823 139.657 145.387 137.628 145.756 134.737C146.125 131.846 144.16 129.192 141.368 128.81C134.174 127.827 119.404 128.968 113.209 130.573C110.99 131.148 109.477 133.147 109.353 135.394L88.1665 116.986C88.1658 116.986 88.1652 116.985 88.1645 116.984C88.1638 116.984 88.1631 116.984 88.1624 116.983L75.6255 106.091C80.4582 83.7491 94.162 63.2916 114.484 48.2184C114.56 48.1621 114.637 48.1086 114.713 48.0522C114.721 48.0466 114.73 48.0403 114.738 48.0339C136.371 32.0806 164.046 23.2935 192.708 23.2935ZM78.5318 11.0881C87.9061 9.94391 110.583 9.42217 131.227 26.1683C124.568 29.2769 118.208 32.8995 112.233 37.0085C98.5051 24.8841 83.2849 19.0112 71.2328 16.1779C72.7104 13.3968 75.4059 11.4697 78.5318 11.0881ZM68.5591 26.3767C78.8779 28.7523 91.8425 33.5972 103.708 43.4165C92.3308 52.7549 83.0795 63.7458 76.3293 75.802C66.0397 56.7837 66.5205 38.2104 68.5591 26.3767ZM15.3187 171.78C9.2512 166.508 8.45697 157.108 13.548 150.826L44.6813 112.407C47.1476 109.364 50.6108 107.497 54.433 107.151C58.2498 106.802 61.9788 108.019 64.9177 110.574L77.7036 121.682L28.1052 182.887L15.3187 171.78ZM35.9169 189.676L85.5152 128.472L103.784 144.345L54.1855 205.549L35.9169 189.676ZM72.0807 234.559C71.245 231.726 71.5238 228.725 72.8675 226.109C73.7746 224.343 78.6297 215.117 85.1868 206.879C87.0065 204.593 89.5761 203.177 92.4239 202.893C92.7748 202.858 93.1243 202.841 93.4718 202.841C95.949 202.841 98.3283 203.721 100.264 205.373C104.821 209.262 105.473 216.266 101.718 220.985C97.364 226.457 93.4221 233.329 91.7807 236.527C90.9599 238.124 89.7971 239.455 88.414 240.444C88.3848 240.463 88.3556 240.483 88.3263 240.503C86.5835 241.724 84.5 242.412 82.3098 242.412C80.5513 242.412 78.8636 241.974 77.2942 241.109C74.768 239.718 72.9164 237.391 72.0807 234.559ZM103.571 276.932C92.1315 270.36 79.1818 268.575 69.7762 272.276C64.471 274.363 60.7705 278.108 59.0732 283.106C58.4007 285.087 56.5872 286.418 54.5615 286.418C54.025 286.418 53.4912 286.322 52.9765 286.136C50.4898 285.231 49.1767 282.398 50.0512 279.823C52.6718 272.099 58.4715 266.132 66.379 263.021C78.5263 258.241 94.1633 260.204 108.209 268.274C109.432 268.977 110.607 269.56 111.774 270.049L124.538 281.284C117.728 282.524 110.807 281.088 103.571 276.932ZM164.072 331.704C162.561 336.129 158.502 339.103 153.973 339.103C152.764 339.103 151.562 338.887 150.404 338.464C144.836 336.426 141.907 330.077 143.875 324.312C145.981 318.144 148.359 310.77 149.956 303.651L167.965 319.502C166.869 323.247 165.587 327.268 164.072 331.704ZM218.683 341.77C217.461 341.593 216.252 341.354 215.058 341.063L216.913 338.776C218.724 336.542 218.442 333.211 216.284 331.336C214.127 329.461 210.91 329.753 209.1 331.987L204.976 337.075C202.665 335.767 200.473 334.227 198.439 332.46L149.763 289.62C149.759 289.617 149.756 289.614 149.752 289.611L138.125 279.379C138.123 279.376 138.12 279.374 138.118 279.372L98.7383 244.715C99.5006 243.711 100.193 242.638 100.785 241.484C102.248 238.635 105.75 232.524 109.589 227.7C116.92 218.486 115.647 204.814 106.749 197.222C102.439 193.544 97.0009 191.82 91.4441 192.38C85.8838 192.935 80.8662 195.699 77.3146 200.162C72.722 205.933 68.9052 212.121 66.4912 216.336L61.9775 212.364L111.576 151.159L196.191 225.628C194.523 228.725 193.565 232.283 193.554 236.068C193.523 248.007 202.878 257.745 214.421 257.778H214.518C219.157 257.778 224.514 256.954 230.126 255.494L248.011 271.234C250.055 273.01 251.909 274.986 253.559 277.122L223.377 314.366C221.567 316.6 221.848 319.931 224.006 321.805C224.961 322.636 226.125 323.041 227.281 323.041C228.737 323.041 230.182 322.399 231.19 321.155L259.104 286.709C259.587 287.876 260.025 289.066 260.405 290.282L268.976 317.698L246.245 345.749L218.683 341.77ZM277.44 348.95C277.156 349.301 276.347 350.09 275.041 349.906L258.168 347.47L272.687 329.554L277.934 346.336C278.341 347.643 277.724 348.6 277.44 348.95ZM159.239 124.65C162.056 124.65 164.339 122.286 164.339 119.369V111.15C164.339 108.233 162.056 105.869 159.239 105.869C156.422 105.869 154.139 108.233 154.139 111.15V119.369C154.139 122.286 156.422 124.65 159.239 124.65ZM254.877 124.65C257.694 124.65 259.977 122.286 259.977 119.369V111.15C259.977 108.233 257.694 105.869 254.877 105.869C252.061 105.869 249.777 108.233 249.777 111.15V119.369C249.777 122.286 252.06 124.65 254.877 124.65ZM267.543 156.497C273.212 158.055 285.273 164.303 289.489 167.526C290.4 168.222 291.46 168.558 292.513 168.558C294.077 168.558 295.62 167.816 296.62 166.413C298.293 164.067 297.812 160.761 295.546 159.029C290.407 155.1 277.173 148.217 270.16 146.289C267.433 145.543 264.644 147.22 263.922 150.037C263.2 152.857 264.821 155.748 267.543 156.497ZM274.083 139.283C279.9 138.487 293.349 139.506 298.432 140.822C298.847 140.929 299.264 140.981 299.673 140.981C301.958 140.981 304.038 139.38 304.618 136.98C305.301 134.15 303.639 131.284 300.907 130.575C294.711 128.972 279.944 127.83 272.748 128.812C269.956 129.195 267.991 131.848 268.36 134.74C268.728 137.631 271.298 139.659 274.083 139.283Z" fill="black"/>
</svg>
