<svg width="350" height="350" viewBox="0 0 350 350" fill="none" xmlns="http://www.w3.org/2000/svg">
<g clip-path="url(#clip0)">
<path d="M208.251 92.0145C224.343 77.5073 249.074 64.3358 285.215 66.0291C284.888 101.644 272.547 126.849 260.036 143.307C260.036 143.307 223.55 137.014 193.465 155.328C207.257 116.157 208.251 92.0145 208.251 92.0145Z" fill="#46C373"/>
<path d="M192.068 159.606C192.068 159.606 244.748 124.549 277.054 156.855C306.068 185.869 327.157 188.666 343.164 177.411C329.165 206.464 305.383 223.099 287.111 225.892C287.111 225.892 278.225 197.483 242.449 207.552C219.89 187.542 202.786 189.014 202.786 189.014C202.786 189.014 201.616 171.775 192.068 159.606Z" fill="#A5DC69"/>
<path d="M191.317 158.856C191.317 158.856 226.375 106.176 194.068 73.8699C165.054 44.8562 162.258 23.7673 173.513 7.76025C144.236 21.8669 127.57 45.9082 124.969 64.234C124.969 64.234 152.917 75.2993 146.755 112.052C159.733 116.904 165.268 127.407 164.551 147.904C182.064 149.261 191.317 158.856 191.317 158.856Z" fill="#A5DC69"/>
<path d="M164.507 221.313C183.365 221.313 198.653 206.026 198.653 187.167C198.653 168.309 183.365 153.021 164.507 153.021C145.648 153.021 130.361 168.309 130.361 187.167C130.361 206.026 145.648 221.313 164.507 221.313Z" fill="#FF5A5A"/>
<path d="M131.783 177.393C122.13 178.188 112.204 174.901 104.819 167.516C102.968 165.665 101.383 163.649 100.046 161.523C93.2381 162.639 86.7023 165.813 81.4516 171.064C68.1167 184.399 68.1167 206.019 81.4516 219.353C94.7864 232.688 116.406 232.688 129.741 219.353C133.136 215.959 135.663 212.026 137.328 207.831C130.591 198.991 128.737 187.622 131.783 177.393Z" fill="#FF5A5A"/>
<path d="M187.454 249.743C186.311 248.86 185.207 247.904 184.158 246.855C176.773 239.47 173.486 229.544 174.281 219.891C162.902 223.279 150.111 220.605 140.964 211.887C136.881 213.553 133.055 216.04 129.741 219.354C116.406 232.688 116.406 254.308 129.741 267.643C143.076 280.978 164.696 280.978 178.031 267.643C183.103 262.572 186.24 256.3 187.454 249.743Z" fill="#FF5A5A"/>
<path d="M231.652 263.396C231.587 263.332 231.519 263.272 231.454 263.207C228.376 260.13 226.018 256.607 224.361 252.85C224.374 252.843 224.386 252.835 224.399 252.828C212.723 259.073 198.186 258.049 187.453 249.753C186.238 256.307 183.101 262.574 178.032 267.643C174.115 271.561 169.48 274.318 164.553 275.934C165.864 282.21 168.948 288.189 173.82 293.062C187.155 306.397 208.775 306.397 222.11 293.062C230.187 284.984 233.362 273.869 231.652 263.396Z" fill="#FF5A5A"/>
<path d="M104.819 119.225C115.076 108.968 130.232 106.61 142.751 112.132C149.637 99.2194 147.641 82.8152 136.756 71.9303C123.421 58.5955 101.801 58.5955 88.4666 71.9303C75.1317 85.2652 75.1317 106.885 88.4666 120.22C91.5441 123.298 95.0667 125.656 98.8237 127.313C100.373 124.407 102.369 121.675 104.819 119.225Z" fill="#FF5A5A"/>
<path d="M140.361 163.023C146.31 157.074 153.91 153.787 161.686 153.146C165.149 141.518 162.291 128.408 153.109 119.226C139.774 105.891 118.154 105.891 104.819 119.226C91.484 132.561 91.484 154.181 104.819 167.516C112.204 174.902 122.13 178.188 131.783 177.393C133.349 172.134 136.207 167.176 140.361 163.023Z" fill="#FF5A5A"/>
<path d="M232.448 246.855C242.705 236.598 245.063 221.442 239.541 208.922C252.454 202.037 268.858 204.033 279.743 214.918C293.078 228.252 293.078 249.872 279.743 263.207C266.408 276.542 244.788 276.542 231.453 263.207C228.376 260.13 226.017 256.607 224.36 252.85C227.267 251.301 229.998 249.305 232.448 246.855Z" fill="#FF5A5A"/>
<path d="M188.651 211.313C194.6 205.364 197.887 197.764 198.528 189.988C210.157 186.525 223.266 189.384 232.448 198.566C245.783 211.9 245.783 233.521 232.448 246.855C219.113 260.19 197.493 260.19 184.158 246.855C176.773 239.47 173.486 229.544 174.281 219.891C179.54 218.325 184.498 215.466 188.651 211.313Z" fill="#FF5A5A"/>
<path d="M99.7035 125.798C99.9933 125.316 100.298 124.841 100.613 124.372C100.298 124.842 99.9927 125.316 99.7035 125.798Z" fill="#FF5A5A"/>
<path d="M100.046 161.523C93.3611 150.895 93.1116 137.397 99.2708 126.543C99.1245 126.801 98.9625 127.053 98.8237 127.314C95.0667 125.657 91.5448 123.298 88.4666 120.221C87.5943 119.348 86.7829 118.439 86.0248 117.501C75.4564 115.67 64.1949 118.825 56.0335 126.986C42.6986 140.321 42.6986 161.941 56.0335 175.276C60.9055 180.148 66.8855 183.232 73.1616 184.543C74.7776 179.616 77.5346 174.981 81.4522 171.064C86.7022 165.812 93.2381 162.637 100.046 161.523Z" fill="#FF5A5A"/>
<path d="M121.642 232.241C120.932 231.376 120.175 230.537 119.367 229.729C118.559 228.921 117.719 228.164 116.854 227.454C105.882 231.275 93.3515 229.333 83.9651 221.629C79.2579 223.269 74.8378 225.968 71.0773 229.729C57.7425 243.063 57.7425 264.683 71.0773 278.018C84.4122 291.353 106.032 291.353 119.367 278.018C123.128 274.257 125.827 269.838 127.466 265.131C119.763 255.744 117.821 243.213 121.642 232.241Z" fill="#FF5A5A"/>
<path d="M175.02 294.203C174.613 293.833 174.212 293.455 173.819 293.062C168.947 288.19 165.864 282.209 164.552 275.933C164.607 275.915 164.661 275.892 164.717 275.874C152.832 279.84 139.204 277.104 129.742 267.643C128.805 266.706 127.947 265.72 127.142 264.706C127.253 264.846 127.353 264.991 127.466 265.13C125.827 269.837 123.128 274.257 119.367 278.018C116.115 281.27 112.367 283.723 108.369 285.389C104.654 297.149 107.45 310.522 116.774 319.846C130.108 333.181 151.728 333.181 165.063 319.846C172.113 312.797 175.427 303.434 175.02 294.203Z" fill="#FF5A5A"/>
<path d="M84.3883 221.953C83.3745 221.148 82.3888 220.291 81.4516 219.353C71.9899 209.891 69.2542 196.262 73.2204 184.378C73.2019 184.433 73.1794 184.487 73.1609 184.543C66.8849 183.231 60.9055 180.147 56.0328 175.275C55.6404 174.883 55.261 174.482 54.8912 174.075C45.6606 173.668 36.2974 176.981 29.2475 184.031C15.9127 197.366 15.9127 218.986 29.2475 232.32C38.5718 241.645 51.9442 244.44 63.7048 240.725C65.3707 236.727 67.8234 232.979 71.076 229.727C74.8371 225.966 79.2565 223.267 83.9638 221.628C84.1032 221.742 84.2488 221.842 84.3883 221.953Z" fill="#FF5A5A"/>
<path d="M65.1266 283.967C52.9505 296.143 33.87 297.195 20.4934 287.135C17.6613 298.4 20.6459 310.826 29.456 319.637C38.2669 328.448 50.6932 331.433 61.9582 328.6C51.8998 315.224 52.9512 296.143 65.1266 283.967Z" fill="#FF5A5A"/>
<path d="M116.774 319.846C107.449 310.522 104.654 297.149 108.369 285.389C96.2835 290.425 81.898 288.208 71.8409 278.744C69.4463 280.168 67.187 281.907 65.1274 283.968C51.7925 297.303 51.7925 318.923 65.1274 332.257C78.4622 345.592 100.082 345.592 113.417 332.257C116.257 329.418 118.485 326.201 120.116 322.77C118.956 321.877 117.837 320.909 116.774 319.846Z" fill="#FF5A5A"/>
<path d="M63.7055 240.725C51.9449 244.441 38.5725 241.645 29.2482 232.321C28.1859 231.259 27.218 230.138 26.3245 228.979C22.8935 230.609 19.6766 232.838 16.8369 235.678C3.50204 249.012 3.50204 270.632 16.8369 283.967C30.1718 297.302 51.7918 297.302 65.1267 283.967C67.187 281.907 68.9268 279.648 70.3507 277.254C60.8863 267.197 58.6694 252.811 63.7055 240.725Z" fill="#FF5A5A"/>
<path d="M347.586 172.198C345.213 170.185 341.779 170.029 339.233 171.819C333.78 175.653 317.186 187.32 281.889 152.022C277.999 148.133 273.697 144.966 269.028 142.518C283.847 120.898 291.79 94.6142 292.052 66.0913C292.085 62.4163 289.207 59.3722 285.536 59.2C256.188 57.8259 229.802 65.9108 208.78 82.6233C206.285 77.6727 202.993 73.1261 198.903 69.0355C196.234 66.3661 191.905 66.3661 189.235 69.0355C186.566 71.7049 186.566 76.0335 189.235 78.7036C213.743 103.21 192.704 143.142 186.967 152.882C183.494 150.596 179.711 148.872 175.728 147.745C187.368 133.511 188.752 111.977 177.723 94.6375C175.697 91.4519 171.471 90.512 168.286 92.5388C165.101 94.565 164.161 98.7903 166.187 101.976C172.606 112.068 173.178 124.084 168.699 133.474C166.923 126.355 163.265 119.714 157.943 114.393C155.945 112.394 153.774 110.633 151.468 109.111C156.348 94.5288 152.641 78.1478 141.591 67.0968C138.904 64.4096 135.929 62.1859 132.77 60.4024C136.022 48.9378 145.322 34.821 160.658 23.4528C160.392 26.8913 160.59 30.42 161.256 34.0307C161.94 37.7433 165.503 40.1981 169.217 39.5145C172.93 38.8302 175.386 35.266 174.701 31.5527C173.366 24.3039 174.806 17.807 179.106 11.6916C180.896 9.14517 180.74 5.71148 178.727 3.33804C176.714 0.964604 173.351 0.249565 170.546 1.60171C142.213 15.2538 125.458 37.394 119.891 55.769C107.126 53.4831 93.4794 57.2524 83.6336 67.0975C71.8915 78.8403 68.79 95.991 74.306 110.603C65.6619 111.857 57.5176 115.837 51.2012 122.153C43.4602 129.893 39.1973 140.185 39.1973 151.132C39.1973 157.252 40.5323 163.166 43.0603 168.546C36.0712 170.369 29.6037 174.012 24.4166 179.199C16.6756 186.939 12.4127 197.231 12.4127 208.178C12.4127 214.73 13.9508 221.042 16.8369 226.718C15.13 227.964 13.5126 229.338 12.0053 230.846C4.26289 238.585 0 248.876 0 259.823C0 270.77 4.26289 281.061 12.0032 288.802C12.3396 289.138 12.6861 289.457 13.0307 289.779C11.2772 302.406 15.5265 315.376 24.623 324.473C32.3736 332.223 42.9331 336.457 53.699 336.457C55.57 336.457 57.4465 336.324 59.3161 336.064C59.6381 336.409 59.9573 336.756 60.293 337.092C68.2828 345.082 78.7773 349.077 89.2719 349.077C99.7664 349.077 110.262 345.081 118.251 337.092C119.762 335.58 121.139 333.959 122.387 332.247C128.193 335.186 134.554 336.664 140.919 336.664C151.413 336.664 161.908 332.67 169.898 324.681C175.085 319.494 178.726 313.026 180.549 306.037C185.929 308.565 191.844 309.9 197.964 309.9C208.911 309.9 219.202 305.637 226.943 297.896C232.904 291.935 236.791 284.32 238.261 276.198C243.739 278.748 249.668 280.025 255.598 280.025C266.092 280.025 276.589 276.03 284.577 268.042C294.658 257.961 298.372 243.893 295.733 230.868C304.21 228.231 312.977 223.39 321.06 216.798C332.608 207.379 342.381 194.786 349.323 180.38C350.673 177.574 349.96 174.212 347.586 172.198ZM278.166 72.7187C276.816 97.4183 269.25 119.235 255.667 137.7C245.195 135.432 233.419 136.014 220.636 139.524C220.486 139.565 220.34 139.609 220.191 139.651L236.935 122.907C239.604 120.237 239.604 115.909 236.935 113.239C234.266 110.569 229.937 110.569 227.267 113.239L211.819 128.687C214.817 117.028 215.356 106.226 213.482 96.5153C231.146 80.8699 252.874 72.8773 278.166 72.7187ZM235.613 222.711C235.613 230.005 232.772 236.863 227.613 242.022C217.843 251.792 202.452 252.59 191.754 244.429C191.751 244.426 191.748 244.424 191.745 244.422C190.789 243.691 189.865 242.896 188.992 242.022C184.306 237.336 181.532 231.165 181.074 224.642C185.578 222.657 189.799 219.833 193.484 216.148C199.181 210.451 202.987 203.368 204.603 195.662C212.992 194.515 221.518 197.304 227.614 203.401C232.773 208.558 235.613 215.415 235.613 222.711ZM162.604 269.387C162.493 269.419 162.384 269.456 162.276 269.495C159.6 270.355 156.779 270.808 153.887 270.808C146.592 270.808 139.733 267.967 134.575 262.809C129.417 257.651 126.576 250.793 126.576 243.498C126.576 236.204 129.417 229.346 134.576 224.187C136.211 222.552 138.018 221.149 139.973 219.991C147.218 225.414 155.86 228.132 164.506 228.132C165.563 228.132 166.62 228.08 167.675 227.999C168.826 236.894 172.866 245.23 179.325 251.69C179.477 251.841 179.635 251.982 179.789 252.131C178.46 256.136 176.227 259.781 173.198 262.81C170.168 265.839 166.55 268.062 162.604 269.387ZM114.533 273.184C112.018 275.698 109.098 277.657 105.922 279.01C105.803 279.056 105.687 279.107 105.571 279.16C102.33 280.487 98.8299 281.184 95.2219 281.184C88.1877 281.184 81.5644 278.535 76.4743 273.721C76.0929 273.368 75.7251 273.002 75.3724 272.619C70.5592 267.53 67.9116 260.907 67.9116 253.873C67.9116 250.259 68.6109 246.753 69.9419 243.507C69.9897 243.4 70.0369 243.294 70.0793 243.185C71.4321 240.004 73.3934 237.079 75.911 234.562C78.0261 232.447 80.4159 230.733 83.0375 229.428C89.8522 233.924 97.7231 236.172 105.597 236.171C108.316 236.171 111.034 235.897 113.71 235.36C113.179 238.011 112.904 240.733 112.904 243.498C112.904 251.643 115.268 259.423 119.664 266.062C118.36 268.681 116.647 271.07 114.533 273.184C116.647 271.07 112.018 275.698 114.533 273.184ZM99.9852 172.35C106.399 178.763 114.777 182.822 123.676 183.987C123.026 192.412 124.96 200.996 129.484 208.443C128.257 210.659 126.73 212.697 124.908 214.519C114.259 225.166 96.9336 225.168 86.2846 214.519C81.1269 209.361 78.2858 202.503 78.2858 195.208C78.2858 192.326 78.7363 189.515 79.5908 186.847C79.638 186.714 79.6845 186.58 79.7241 186.443C81.051 182.516 83.2679 178.914 86.2853 175.898C89.371 172.812 93.0809 170.55 97.1694 169.233C98.0499 170.311 98.9871 171.352 99.9852 172.35ZM191.816 187.169C191.816 194.463 188.975 201.321 183.817 206.48C173.37 216.929 156.497 217.118 145.807 207.061C145.786 207.04 145.763 207.02 145.742 206.999C145.559 206.826 145.374 206.658 145.195 206.48C134.546 195.832 134.546 178.506 145.195 167.857C150.352 162.699 157.211 159.858 164.506 159.858C171.801 159.858 178.659 162.699 183.817 167.858C188.975 173.016 191.816 179.874 191.816 187.169ZM156.009 147.072C148.304 148.689 141.223 152.493 135.527 158.19C131.842 161.875 129.018 166.096 127.033 170.6C120.518 170.134 114.304 167.336 109.652 162.682C108.213 161.243 106.961 159.667 105.893 157.991C105.846 157.913 105.798 157.837 105.748 157.762C103.084 153.483 101.652 148.538 101.652 143.372C101.652 136.078 104.493 129.219 109.652 124.061C114.81 118.903 121.668 116.062 128.963 116.062C136.257 116.062 143.116 118.903 148.274 124.061C154.314 130.1 157.138 138.688 156.009 147.072ZM93.2996 76.7642C103.948 66.1159 121.274 66.1159 131.922 76.7642C138.992 83.8339 141.55 94.176 138.868 103.589C135.666 102.798 132.346 102.389 128.963 102.389C118.017 102.389 107.725 106.652 99.9852 114.392C98.7752 115.602 97.6609 116.881 96.6239 118.208C95.4475 117.358 94.3332 116.419 93.3003 115.387C82.652 104.739 82.6519 87.4126 93.2996 76.7642ZM60.8672 131.819C66.5916 126.095 74.5726 123.247 82.5856 123.952C82.9295 124.323 83.2727 124.693 83.6329 125.054C85.6112 127.032 87.7816 128.79 90.1065 130.319C88.7161 134.472 87.9819 138.864 87.9819 143.372C87.9819 148.148 88.794 152.798 90.352 157.168C85.2421 159.208 80.5855 162.263 76.6179 166.23C73.6463 169.202 71.1929 172.551 69.2911 176.168C66.1678 174.812 63.3104 172.885 60.8672 170.443C60.5548 170.13 60.2513 169.81 59.956 169.486C59.9409 169.468 59.9252 169.452 59.9102 169.436C55.3595 164.408 52.8685 157.961 52.8685 151.132C52.8678 143.836 55.7088 136.978 60.8672 131.819ZM34.0826 188.865C38.8753 184.073 45.3065 181.258 52.0399 180.919C55.8359 184.507 60.2438 187.31 65.0494 189.215C64.763 191.182 64.6153 193.184 64.6153 195.208C64.6153 204.132 67.4495 212.619 72.6899 219.645C70.391 221.162 68.2322 222.906 66.2443 224.894C63.2516 227.887 60.7852 231.265 58.8772 234.911C49.9228 236.752 40.6362 234.039 34.0833 227.487C33.2685 226.672 32.5179 225.81 31.8206 224.915C31.7803 224.86 31.7372 224.808 31.6948 224.754C28.0595 220.015 26.0839 214.249 26.0839 208.176C26.0832 200.882 28.9242 194.024 34.0826 188.865ZM21.6713 240.512C22.7028 239.48 23.8109 238.541 24.9819 237.694C32.7359 245.161 42.9003 249.167 53.3395 249.167C53.7325 249.167 54.1263 249.156 54.52 249.145C54.3423 250.704 54.2411 252.28 54.2411 253.873C54.2411 262.472 56.8818 270.66 61.7613 277.531C61.291 278.081 60.807 278.621 60.2943 279.134C50.5887 288.841 35.3377 289.695 24.6497 281.707C24.6292 281.691 24.6087 281.675 24.5875 281.659C23.5724 280.896 22.5955 280.057 21.672 279.134C16.5129 273.976 13.6719 267.118 13.6719 259.823C13.6719 252.528 16.5129 245.671 21.6713 240.512ZM34.2911 314.805C29.696 310.209 26.9883 304.327 26.4072 298.112C31.0919 299.887 36.0356 300.786 40.9828 300.786C43.7124 300.786 46.4413 300.509 49.1271 299.969C47.6068 307.522 48.2296 315.419 50.9845 322.688C44.7679 322.107 38.8855 319.4 34.2911 314.805ZM69.961 327.424C69.0375 326.5 68.1994 325.523 67.4365 324.508C67.4208 324.487 67.4044 324.466 67.388 324.446C59.4009 313.758 60.2554 298.508 69.961 288.801C70.4744 288.288 71.0138 287.804 71.5641 287.334C78.4355 292.214 86.6236 294.855 95.2219 294.855C96.8133 294.855 98.389 294.755 99.9469 294.576C99.6338 305.426 103.649 316.073 111.397 324.118C110.55 325.287 109.614 326.393 108.583 327.424C97.9357 338.073 80.6094 338.074 69.961 327.424ZM124.261 317.335C124.246 317.324 124.232 317.311 124.216 317.3C123.312 316.6 122.437 315.842 121.607 315.012C115.055 308.46 112.342 299.174 114.183 290.218C117.83 288.311 121.207 285.844 124.2 282.851C126.189 280.863 127.933 278.704 129.449 276.405C136.475 281.645 144.962 284.48 153.886 284.48C155.91 284.48 157.912 284.332 159.88 284.046C161.785 288.852 164.588 293.26 168.176 297.056C167.84 303.786 165.022 310.22 160.23 315.012C150.425 324.816 134.963 325.585 124.261 317.335ZM217.275 288.228C212.117 293.386 205.259 296.227 197.964 296.227C190.669 296.227 183.811 293.386 178.652 288.228C176.21 285.785 174.283 282.927 172.927 279.804C176.544 277.902 179.893 275.448 182.865 272.476C186.489 268.852 189.362 264.64 191.389 260.033C196.749 262.454 202.525 263.672 208.303 263.672C212.713 263.672 217.12 262.958 221.344 261.547C222.482 263.281 223.748 264.929 225.142 266.477C225.856 274.498 222.997 282.507 217.275 288.228ZM274.91 258.374C264.319 268.964 247.126 269.017 236.465 258.542L236.461 258.538C236.401 258.478 236.337 258.418 236.269 258.354C235.241 257.324 234.307 256.217 233.462 255.048C234.786 254.017 236.066 252.905 237.282 251.689C245.023 243.949 249.285 233.657 249.285 222.71C249.285 219.325 248.875 216.003 248.084 212.799C257.498 210.092 267.781 212.621 274.91 219.75C285.558 230.4 285.558 247.726 274.91 258.374ZM290.808 218.089C289.107 215.233 287.032 212.539 284.577 210.083C273.434 198.942 257.156 195.29 242.562 200.206C241.041 197.9 239.28 195.729 237.281 193.731C229.862 186.314 220.049 182.152 209.893 181.759C215.131 178.786 220.979 177.261 226.898 177.399C234.966 177.592 242.201 180.873 247.27 186.637C248.621 188.173 250.508 188.958 252.405 188.958C254.009 188.958 255.619 188.398 256.918 187.256C259.753 184.762 260.029 180.443 257.536 177.608C249.917 168.946 239.153 164.018 227.226 163.732C218.356 163.518 209.639 165.906 201.976 170.546C200.94 168.212 199.682 165.974 198.212 163.858C208.238 157.982 247.854 137.323 272.221 161.69C292.531 182 311.041 191.564 327.506 190.292C316.276 205.555 302.431 214.773 290.808 218.089Z" fill="black"/>
<path d="M172.802 46.9808C169.626 49.022 168.707 53.2514 170.749 56.4274L170.894 56.6516C172.203 58.6675 174.395 59.764 176.632 59.764C177.909 59.764 179.201 59.4072 180.351 58.6593C183.516 56.6024 184.415 52.3682 182.358 49.2032L182.249 49.0343C180.207 45.8583 175.978 44.9389 172.802 46.9808Z" fill="black"/>
<path d="M249.3 107.709C251.098 107.709 252.861 106.978 254.133 105.706C255.404 104.435 256.136 102.671 256.136 100.873C256.136 99.0752 255.404 97.3115 254.133 96.04C252.861 94.7685 251.098 94.0371 249.3 94.0371C247.502 94.0371 245.738 94.7685 244.467 96.04C243.195 97.3115 242.464 99.0752 242.464 100.873C242.464 102.671 243.195 104.435 244.467 105.706C245.738 106.978 247.502 107.709 249.3 107.709Z" fill="black"/>
</g>
<defs>
<clipPath id="clip0">
<rect width="350" height="350" fill="white"/>
</clipPath>
</defs>
</svg>
