<svg width="97" height="97" viewBox="0 0 97 97" fill="none" xmlns="http://www.w3.org/2000/svg">
<path d="M48.4997 78.2396C64.9257 78.2396 78.2416 64.9237 78.2416 48.4977C78.2416 32.0717 64.9257 18.7559 48.4997 18.7559C32.0737 18.7559 18.7578 32.0717 18.7578 48.4977C18.7578 64.9237 32.0737 78.2396 48.4997 78.2396Z" fill="#FEDB41"/>
<path d="M72.1794 49.8239C71.8284 49.8235 71.4919 49.6839 71.2437 49.4357C70.9955 49.1875 70.8559 48.851 70.8555 48.5C70.8495 42.5728 68.4922 36.8901 64.3011 32.6989C60.1099 28.5078 54.4272 26.1505 48.5 26.1445C48.1483 26.1445 47.811 26.0048 47.5623 25.7561C47.3135 25.5074 47.1738 25.1701 47.1738 24.8184C47.1738 24.4666 47.3135 24.1293 47.5623 23.8806C47.811 23.6319 48.1483 23.4922 48.5 23.4922C55.1303 23.4992 61.4871 26.1362 66.1754 30.8246C70.8638 35.5129 73.5008 41.8697 73.5078 48.5C73.5076 48.6742 73.4731 48.8466 73.4062 49.0075C73.3393 49.1683 73.2414 49.3143 73.118 49.4373C72.9946 49.5603 72.8482 49.6577 72.6872 49.724C72.5261 49.7904 72.3536 49.8243 72.1794 49.8239Z" fill="#FEA832"/>
<path d="M48.4999 12.6934C50.6605 12.6959 52.8164 12.894 54.9413 13.2852C54.9701 12.8722 54.989 12.4516 54.989 12.0288C54.9883 6.11708 48.4999 1.32391 48.4999 1.32391C48.4999 1.32391 42.0107 6.11708 42.0107 12.0288C42.0107 12.4547 42.0304 12.8722 42.0592 13.2852C44.1839 12.894 46.3395 12.6959 48.4999 12.6934Z" fill="#FEA832"/>
<path d="M48.5001 84.3021C50.6607 84.2994 52.8166 84.1016 54.9415 83.711C54.9703 84.1232 54.9893 84.5408 54.9893 84.9667C54.9893 90.8776 48.5009 95.6716 48.5009 95.6716C48.5009 95.6716 42.0117 90.8792 42.0117 84.9667C42.0117 84.5408 42.0314 84.1232 42.0602 83.711C44.1847 84.1015 46.3401 84.2994 48.5001 84.3021Z" fill="#FEA832"/>
<path d="M73.8185 23.18C75.3438 24.7097 76.7279 26.374 77.9538 28.1527C78.2668 27.8814 78.5753 27.5995 78.8761 27.2987C83.057 23.1178 81.8573 15.1411 81.8573 15.1411C81.8573 15.1411 73.8806 13.9437 69.6998 18.1223C69.3966 18.4254 69.117 18.7286 68.8457 19.0446C70.6244 20.2705 72.2887 21.6546 73.8185 23.18Z" fill="#FEA832"/>
<path d="M23.1827 73.8155C24.7121 75.3412 26.3765 76.7253 28.1555 77.9509C27.8842 78.2639 27.6023 78.5723 27.3014 78.8732C23.1206 83.054 15.1439 81.8544 15.1439 81.8544C15.1439 81.8544 13.9442 73.8777 18.1251 69.6968C18.4282 69.3937 18.7313 69.1141 19.0474 68.8428C20.2731 70.6216 21.6572 72.286 23.1827 73.8155Z" fill="#FEA832"/>
<path d="M84.304 48.5C84.3013 50.6606 84.1035 52.8165 83.7129 54.9414C84.1251 54.9702 84.5427 54.9899 84.9686 54.9899C90.8795 54.9899 95.6734 48.5008 95.6734 48.5008C95.6734 48.5008 90.8803 42.0124 84.9686 42.0124C84.5427 42.0124 84.1251 42.0313 83.7129 42.0601C84.1034 44.1846 84.3012 46.34 84.304 48.5Z" fill="#FEA832"/>
<path d="M12.6956 48.5C12.6983 50.6605 12.8961 52.8164 13.2867 54.9414C12.8745 54.9702 12.4531 54.9899 12.031 54.9899C6.11934 54.9869 1.32617 48.5 1.32617 48.5C1.32617 48.5 6.11934 42.0116 12.031 42.0116C12.4569 42.0116 12.8745 42.0305 13.2867 42.0593C12.8962 44.184 12.6984 46.3397 12.6956 48.5Z" fill="#FEA832"/>
<path d="M73.8185 73.8155C72.2887 75.3409 70.6244 76.725 68.8457 77.9509C69.117 78.2639 69.3989 78.5723 69.6998 78.8732C73.8806 83.054 81.8573 81.8544 81.8573 81.8544C81.8573 81.8544 83.057 73.8777 78.8761 69.6968C78.573 69.3937 78.2699 69.1141 77.9538 68.8428C76.7281 70.6216 75.344 72.286 73.8185 73.8155Z" fill="#FEA832"/>
<path d="M23.1827 23.18C21.6574 24.7097 20.2733 26.374 19.0474 28.1527C18.7344 27.8814 18.4259 27.5995 18.1251 27.2987C13.9442 23.1178 15.1439 15.1411 15.1439 15.1411C15.1439 15.1411 23.1206 13.9437 27.3014 18.1223C27.6046 18.4254 27.8842 18.7286 28.1555 19.0446C26.3767 20.2703 24.7123 21.6544 23.1827 23.18Z" fill="#FEA832"/>
</svg>
