<svg width="512" height="520" viewBox="0 0 512 520" fill="none" xmlns="http://www.w3.org/2000/svg">
<g clip-path="url(#clip0)" filter="url(#filter0_d)">
<path d="M69.957 229.445C93.2126 229.445 112.065 210.593 112.065 187.337C112.065 164.081 93.2126 145.229 69.957 145.229C46.7014 145.229 27.849 164.081 27.849 187.337C27.849 210.593 46.7014 229.445 69.957 229.445Z" fill="#A2DDFD"/>
<path d="M250.043 30.919C243.531 31.86 236.939 30.24 231.713 26.243C216.346 14.492 197.148 7.5 176.308 7.5C155.463 7.5 136.261 14.495 120.893 26.252C115.673 30.245 109.089 31.862 102.585 30.922C58.127 24.499 16.782 59.009 16.782 105.415C16.782 157.156 67.277 192.112 114.381 177.267C120.617 175.302 127.355 176.223 133.112 179.324C145.973 186.249 160.678 190.189 176.309 190.189C191.94 190.189 206.645 186.25 219.506 179.324C225.264 176.223 232.002 175.303 238.24 177.268C285.289 192.086 335.835 157.236 335.835 105.415C335.834 59.058 294.542 24.491 250.043 30.919Z" fill="#CDE9FA"/>
<path d="M334.389 120.294C327.083 119.521 319.677 119.122 312.197 119.122C273.685 119.122 236.483 129.565 204.61 149.322C187.104 160.174 171.811 173.43 159.172 188.579C164.722 189.635 170.45 190.189 176.308 190.189C191.939 190.189 206.644 186.25 219.505 179.324C225.263 176.223 232.001 175.303 238.239 177.268C280.623 190.616 325.837 163.655 334.389 120.294Z" fill="#A2DDFD"/>
<path d="M115.68 302.954C125.691 292.943 125.691 276.713 115.68 266.702C105.67 256.691 89.4389 256.691 79.4281 266.702C69.4174 276.713 69.4174 292.943 79.4281 302.954C89.4389 312.965 105.67 312.965 115.68 302.954Z" fill="#A2DDFD"/>
<path d="M434.711 504.5C434.711 436.838 379.86 381.986 312.197 381.986C250.55 381.986 199.538 427.517 190.955 486.786C189.601 496.137 196.92 504.5 206.368 504.5H434.711Z" fill="#B0ADE2"/>
<path d="M312.198 467.619C349.562 467.619 385.309 457.594 415.718 438.96C393.993 404.717 355.752 381.986 312.197 381.986C268.642 381.986 230.401 404.717 208.676 438.959C239.086 457.594 274.834 467.619 312.198 467.619Z" fill="#A09CDC"/>
<path d="M312.198 437.619C398.728 437.619 468.874 374.411 468.874 296.44C468.874 218.469 398.728 155.261 312.198 155.261C225.668 155.261 155.522 218.469 155.522 296.44C155.522 374.411 225.668 437.619 312.198 437.619Z" fill="#FFD3BD"/>
<path d="M312.198 437.619C398.728 437.619 468.874 374.411 468.874 296.44C468.874 218.469 398.728 155.261 312.198 155.261C225.668 155.261 155.522 218.469 155.522 296.44C155.522 374.411 225.668 437.619 312.198 437.619Z" fill="#FFD3BD"/>
<path d="M312.198 437.619C398.728 437.619 468.874 374.411 468.874 296.44C468.874 218.469 398.728 155.261 312.198 155.261C225.668 155.261 155.522 218.469 155.522 296.44C155.522 374.411 225.668 437.619 312.198 437.619Z" fill="#FFD3BD"/>
<path d="M456.207 352.124C446.78 346.392 435.87 343.244 424.646 343.244C409.534 343.244 395.047 348.84 383.852 359.002C364.144 376.895 358.953 404.884 368.965 428.06C408.139 414.332 439.664 386.816 456.207 352.124Z" fill="#FFBE9D"/>
<path d="M479.646 504.5C488.79 504.5 496.06 496.642 495.139 487.545C491.187 448.527 475.404 414.171 447.383 383.308C435.989 370.756 416.572 369.817 404.017 381.214C391.464 392.611 390.527 412.027 401.923 424.58C423.685 448.549 434.104 473.694 434.711 504.5H479.646Z" fill="#FFD3BD"/>
<path d="M468.423 410.669C454.902 427.844 429.563 441.747 418.25 446.213C428.97 463.877 434.283 482.78 434.711 504.5H479.645C488.789 504.5 496.059 496.642 495.138 487.545C492.317 459.684 483.458 434.201 468.423 410.669Z" fill="#A09CDC"/>
<path d="M454.717 252.129C461.02 252.054 465.152 245.573 462.511 239.85C437.945 186.625 379.825 149.122 312.198 149.122C244.159 149.122 185.741 187.083 161.438 240.825C158.698 246.885 164.245 253.351 170.64 251.526C195.399 244.461 225.013 231.59 245.136 219.184C248.615 217.039 253.027 219.787 252.622 223.854C252.458 225.503 252.32 227.275 252.223 229.138C251.434 244.224 264.244 256.462 279.281 255.016C304.354 252.604 341.282 245.858 364.615 227.278C366.508 225.771 369.137 225.606 371.155 226.941C394.199 242.192 423.69 252.496 454.717 252.129Z" fill="#D99A84"/>
<path d="M142.165 120.476C154.247 108.394 154.247 88.8056 142.165 76.7238C130.084 64.642 110.495 64.642 98.4134 76.7238C86.3316 88.8056 86.3316 108.394 98.4134 120.476C110.495 132.558 130.084 132.558 142.165 120.476Z" fill="#88D37F"/>
<path d="M244.118 69.682H210.738C203.986 69.682 198.513 75.155 198.513 81.907V115.287C198.513 122.039 203.986 127.512 210.738 127.512H244.118C250.87 127.512 256.343 122.039 256.343 115.287V81.907C256.343 75.155 250.869 69.682 244.118 69.682Z" fill="#B0ADE2"/>
<path d="M232.641 354.205C248.853 354.205 261.996 343.739 261.996 330.828C261.996 317.917 248.853 307.451 232.641 307.451C216.429 307.451 203.286 317.917 203.286 330.828C203.286 343.739 216.429 354.205 232.641 354.205Z" fill="#EDA1AB"/>
<path d="M391.754 354.205C407.966 354.205 421.109 343.739 421.109 330.828C421.109 317.917 407.966 307.451 391.754 307.451C375.542 307.451 362.399 317.917 362.399 330.828C362.399 343.739 375.542 354.205 391.754 354.205Z" fill="#EDA1AB"/>
<path d="M97.595 251.71C79.323 251.71 64.457 266.576 64.457 284.848C64.457 303.12 79.323 317.986 97.595 317.986C115.867 317.986 130.733 303.12 130.733 284.848C130.733 266.576 115.867 251.71 97.595 251.71ZM97.595 302.986C87.594 302.986 79.457 294.849 79.457 284.848C79.457 274.847 87.594 266.71 97.595 266.71C107.596 266.71 115.733 274.847 115.733 284.848C115.733 294.85 107.596 302.986 97.595 302.986ZM502.6 486.789C498.471 446.025 482.225 410.527 452.936 378.267C452.257 377.519 451.547 376.812 450.821 376.126C467.559 352.313 476.374 324.919 476.374 296.441C476.374 281.08 473.79 265.965 468.704 251.445C471.276 246.925 471.521 241.473 469.321 236.707C445.57 185.247 394.02 150.035 334.414 142.959C340.277 131.468 343.336 118.697 343.336 105.415C343.336 81.408 332.933 58.631 314.793 42.924C296.592 27.165 272.603 20.083 248.971 23.497C244.361 24.161 239.848 23.023 236.27 20.286C218.916 7.015 198.182 0 176.308 0C154.429 0 133.691 7.018 116.336 20.294C112.765 23.026 108.261 24.162 103.658 23.499C92.081 21.826 80.524 22.612 69.307 25.836C65.326 26.98 63.026 31.134 64.17 35.116C65.313 39.096 69.468 41.397 73.449 40.253C82.611 37.62 92.053 36.978 101.512 38.345C110.144 39.594 118.646 37.413 125.45 32.209C140.166 20.951 157.753 15 176.308 15C194.859 15 212.442 20.948 227.157 32.201C233.967 37.409 242.477 39.591 251.115 38.342C270.438 35.55 290.065 41.354 304.973 54.262C319.82 67.118 328.335 85.763 328.335 105.414C328.335 118.506 324.712 130.971 317.844 141.717C274.768 140.434 233.834 153.755 201.61 178.766C179.387 185.815 155.938 183.097 136.668 172.72C128.858 168.514 120.143 167.588 112.127 170.114C69.333 183.599 24.283 151.598 24.283 105.415C24.283 86.641 31.77 69.209 45.366 56.331C48.373 53.482 48.502 48.736 45.653 45.728C42.804 42.721 38.058 42.591 35.05 45.441C18.433 61.18 9.282 82.48 9.282 105.415C9.282 125.59 16.352 144.418 29.108 159.193C23.423 167.427 20.349 177.199 20.349 187.337C20.349 214.691 42.603 236.944 69.956 236.944C98.499 236.944 121.478 212.695 119.423 183.843C122.761 183.459 126.27 184.159 129.555 185.927C144.931 194.206 162.769 198.466 181.231 197.552C170.226 209.576 161.228 223.082 154.602 237.734C152.461 242.469 152.833 247.753 155.482 252.041C134.732 312.155 157.894 378.741 216.121 416.926C198.705 436.055 187.234 460.144 183.532 485.711C181.522 499.59 192.366 512 206.368 512H371.354C375.497 512 378.854 508.642 378.854 504.5C378.854 500.358 375.497 497 371.354 497H206.368C201.588 497 197.663 492.792 198.377 487.861C201.8 464.227 212.738 442.019 229.344 424.75C253.68 437.687 281.997 445.119 312.198 445.119C340.775 445.119 368.638 438.421 393.284 425.725C399.416 434.543 423.548 454.879 426.839 497H407.014C402.872 497 399.514 500.358 399.514 504.5C399.514 508.642 402.872 512 407.014 512H479.645C493.229 512 503.968 500.287 502.6 486.789ZM69.957 221.944C43.191 221.944 26.619 192.725 40.132 169.799C58.66 184.629 82.161 190.632 104.561 187.219C104.561 187.258 104.564 187.298 104.564 187.337C104.564 206.419 89.039 221.944 69.957 221.944ZM168.271 243.915C205.613 161.339 318.112 130.799 399.572 180.914C424.675 196.358 444.085 217.825 455.701 242.993C456.083 243.824 455.452 244.619 454.63 244.629C454.629 244.629 454.629 244.629 454.629 244.629C427.281 244.943 399.112 236.45 375.294 220.686C370.574 217.565 364.406 217.856 359.944 221.411C337.187 239.532 299.189 245.566 278.563 247.551C268.119 248.556 259.163 240.063 259.714 229.53C259.8 227.869 259.926 226.21 260.086 224.597C261.104 214.348 249.935 207.415 241.2 212.801C221.708 224.819 192.526 237.483 168.582 244.316C168.438 244.356 168.405 244.366 168.302 244.248C168.183 244.108 168.211 244.048 168.271 243.915ZM387.318 411.934C364.574 423.841 338.736 430.119 312.198 430.119C212.412 430.119 141.547 344.087 168.863 259.326C170.137 259.289 171.423 259.102 172.698 258.738C196.518 251.941 224.214 240.15 244.766 228.15C243.539 248.964 260.866 264.324 279.998 262.481C306.818 259.901 343.709 252.856 368.217 233.982C394.259 250.881 424.95 259.968 454.805 259.627C455.076 259.624 455.346 259.609 455.615 259.592C459.434 271.533 461.373 283.895 461.373 296.439C461.373 322.06 453.329 346.732 438.07 368.167C425.211 363.361 410.067 365.591 398.976 375.66C388.556 385.122 384.587 399.067 387.318 411.934ZM421.085 436.755C417.129 430.911 412.603 425.186 407.476 419.538C398.877 410.067 399.587 395.366 409.058 386.767C418.55 378.149 433.21 378.855 441.83 388.349C448.247 395.417 453.978 402.65 459.05 410.069C448.07 421.85 431.56 431.701 421.085 436.755ZM479.645 497H441.88C440.672 479.919 436.392 464.358 428.797 449.691C440.229 444.055 455.623 434.513 467.207 423.162C478.55 443.317 485.304 464.878 487.676 488.302C488.158 493.055 484.272 497 479.645 497ZM244.117 135.012C254.993 135.012 263.842 126.163 263.842 115.287V81.907C263.842 71.031 254.993 62.182 244.117 62.182H210.737C199.86 62.182 191.012 71.031 191.012 81.907V115.287C191.012 126.163 199.861 135.012 210.737 135.012H244.117ZM206.012 115.287V81.907C206.012 79.302 208.132 77.182 210.737 77.182H244.117C246.722 77.182 248.842 79.302 248.842 81.907V115.287C248.842 117.892 246.722 120.012 244.117 120.012H210.737C208.132 120.012 206.012 117.892 206.012 115.287ZM120.313 137.039C141.51 137.039 158.755 119.794 158.755 98.597C158.755 77.4 141.51 60.155 120.313 60.155C99.116 60.155 81.871 77.4 81.871 98.597C81.871 119.794 99.116 137.039 120.313 137.039ZM120.313 75.155C133.239 75.155 143.755 85.671 143.755 98.597C143.755 111.523 133.239 122.039 120.313 122.039C107.387 122.039 96.871 111.523 96.871 98.597C96.871 85.671 107.387 75.155 120.313 75.155ZM374.646 288.825C370.503 288.825 367.146 292.183 367.146 296.325V308.325C367.146 312.467 370.503 315.825 374.646 315.825C378.789 315.825 382.146 312.467 382.146 308.325V296.325C382.146 292.183 378.789 288.825 374.646 288.825ZM331.5 308.526C319.4 303.58 303.665 303.55 295.993 303.55H295.733C291.59 303.55 288.233 306.908 288.233 311.05C288.233 315.192 291.59 318.55 295.733 318.55H295.853C301.978 318.545 316.378 318.55 325.824 322.41C329.674 323.985 334.044 322.122 335.604 318.306C337.172 314.472 335.334 310.093 331.5 308.526ZM257.104 276.895C252.68 279.552 246.817 279.553 242.394 276.895C238.842 274.761 234.235 275.912 232.102 279.462C229.969 283.013 231.118 287.62 234.669 289.754C237.254 291.307 240.061 292.428 242.976 293.119C242.514 294.092 242.248 295.176 242.248 296.325V308.325C242.248 312.467 245.606 315.825 249.748 315.825C253.89 315.825 257.248 312.467 257.248 308.325V296.325C257.248 295.176 256.982 294.092 256.52 293.119C259.435 292.428 262.242 291.307 264.828 289.754C268.379 287.621 269.528 283.014 267.395 279.463C265.262 275.911 260.655 274.763 257.104 276.895Z" fill="black"/>
</g>
<defs>
<filter id="filter0_d" x="-4" y="0" width="520" height="520" filterUnits="userSpaceOnUse" color-interpolation-filters="sRGB">
<feFlood flood-opacity="0" result="BackgroundImageFix"/>
<feColorMatrix in="SourceAlpha" type="matrix" values="0 0 0 0 0 0 0 0 0 0 0 0 0 0 0 0 0 0 127 0" result="hardAlpha"/>
<feOffset dy="4"/>
<feGaussianBlur stdDeviation="2"/>
<feComposite in2="hardAlpha" operator="out"/>
<feColorMatrix type="matrix" values="0 0 0 0 0 0 0 0 0 0 0 0 0 0 0 0 0 0 0.25 0"/>
<feBlend mode="normal" in2="BackgroundImageFix" result="effect1_dropShadow"/>
<feBlend mode="normal" in="SourceGraphic" in2="effect1_dropShadow" result="shape"/>
</filter>
<clipPath id="clip0">
<rect width="512" height="512" fill="white"/>
</clipPath>
</defs>
</svg>
