<svg width="70" height="79" viewBox="0 0 70 79" fill="none" xmlns="http://www.w3.org/2000/svg">
<path d="M38.288 15.2458H29.089C27.7751 15.2458 26.71 14.1807 26.71 12.8668V2.38252C26.71 1.06865 27.7751 0.003479 29.089 0.003479H38.288C39.6018 0.003479 40.667 1.06865 40.667 2.38252V12.8668C40.667 14.1807 39.6018 15.2458 38.288 15.2458Z" fill="#56D9DE"/>
<path d="M39.5042 0H34.9043V15.2424H39.5042C40.8181 15.2424 41.8833 14.1772 41.8833 12.8633V2.37904C41.8833 1.06518 40.8181 0 39.5042 0Z" fill="#19A9C3"/>
<path d="M62.7077 10.9024L58.6562 8.11985C58.6558 8.11953 58.6553 8.11905 58.6548 8.11873C58.6543 8.11842 58.6539 8.1181 58.6534 8.11778L54.602 5.33542C53.5189 4.59173 52.0379 4.86659 51.2941 5.94953C50.5502 7.03262 50.8252 8.51366 51.9083 9.25734L54.0001 10.694L51.2404 14.712C50.4966 15.7951 50.7716 17.2761 51.8547 18.0198C52.2663 18.3025 52.7353 18.4381 53.1995 18.4381C53.9568 18.4381 54.7016 18.0772 55.1627 17.4057L57.9224 13.3877L60.0142 14.8243C60.4258 15.1069 60.8948 15.2425 61.359 15.2425C62.1163 15.2425 62.861 14.8817 63.3222 14.2102C64.0657 13.1272 63.7907 11.6462 62.7077 10.9024Z" fill="#295A96"/>
<path d="M59.587 19.4128C52.9944 12.8202 44.2289 9.18927 34.9053 9.18927C25.5817 9.18927 16.8162 12.8202 10.2235 19.4128C3.63089 26.0054 0 34.7711 0 44.0946C0 53.418 3.63089 62.1837 10.2235 68.7763C16.8162 75.3689 25.5817 78.9998 34.9053 78.9998C44.2289 78.9998 52.9944 75.3689 59.587 68.7763C66.1797 62.1837 69.8106 53.418 69.8106 44.0946C69.8106 34.7711 66.1797 26.0056 59.587 19.4128Z" fill="#295A96"/>
<path d="M34.9048 9.18927C34.9046 9.18927 34.9045 9.18927 34.9043 9.18927V79H34.9048C44.2284 79 52.9939 75.3691 59.5865 68.7765C66.1792 62.1838 69.8101 53.4182 69.8101 44.0947C69.8101 34.7713 66.1792 26.0056 59.5865 19.413C52.9939 12.8203 44.2282 9.18927 34.9048 9.18927Z" fill="#163756"/>
<path d="M34.9058 70.1059C20.5631 70.1059 8.89453 58.4373 8.89453 44.0946C8.89453 29.7518 20.5632 18.0833 34.9058 18.0833C41.741 18.0833 48.883 31.0891 48.883 31.0891C48.883 31.0891 60.9172 36.5871 60.9172 44.0946C60.9172 58.4373 49.2484 70.1059 34.9058 70.1059Z" fill="#ECF6FE"/>
<path d="M34.9048 18.0834C34.9046 18.0834 34.9045 18.0834 34.9043 18.0834V70.106H34.9048C49.2475 70.106 60.9161 58.4374 60.9161 44.0947C60.9161 36.4616 46.5009 31.0893 46.5009 31.0893C46.5009 31.0893 41.6145 18.0834 34.9048 18.0834Z" fill="#D3E9FD"/>
<path d="M43.2315 4.75808H26.5783C25.2644 4.75808 24.1992 3.6929 24.1992 2.37904C24.1992 1.06518 25.2644 0 26.5783 0H43.2315C44.5454 0 45.6106 1.06518 45.6106 2.37904C45.6106 3.6929 44.5454 4.75808 43.2315 4.75808Z" fill="#295A96"/>
<path d="M43.2324 0H34.9053V4.75808H43.2324C44.5463 4.75808 45.6114 3.6929 45.6114 2.37904C45.6114 1.06518 44.5463 0 43.2324 0Z" fill="#163756"/>
<path d="M34.9048 18.0834C34.9046 18.0834 34.9045 18.0834 34.9043 18.0834V41.3039C34.9043 42.8454 36.1539 44.0952 37.6955 44.0952H60.9162V44.0947C60.9161 29.7519 49.2474 18.0834 34.9048 18.0834Z" fill="#F70B57"/>
</svg>
